<svg width="1062" height="234" viewBox="0 0 1062 234" fill="none" xmlns="http://www.w3.org/2000/svg">
<g filter="url(#filter0_d_571_5969)">
<path d="M4.2 223V13H102.6C127.8 13 147 18 160.2 28C173.4 37.8 180 51 180 67.6C180 78.8 177.4 88.4 172.2 96.4C167 104.2 160 110.3 151.2 114.7C142.6 118.9 133.2 121 123 121L128.4 110.2C140.2 110.2 150.8 112.4 160.2 116.8C169.6 121 177 127.2 182.4 135.4C188 143.6 190.8 153.8 190.8 166C190.8 184 183.9 198 170.1 208C156.3 218 135.8 223 108.6 223H4.2ZM43.2 192.4H106.2C120.8 192.4 132 190 139.8 185.2C147.6 180.4 151.5 172.7 151.5 162.1C151.5 151.7 147.6 144.1 139.8 139.3C132 134.3 120.8 131.8 106.2 131.8H40.2V101.5H98.4C112 101.5 122.4 99.1 129.6 94.3C137 89.5 140.7 82.3 140.7 72.7C140.7 62.9 137 55.6 129.6 50.8C122.4 46 112 43.6 98.4 43.6H43.2V192.4ZM228.823 223V62.8H264.523V106.9L260.323 94C265.123 83.2 272.623 75 282.823 69.4C293.223 63.8 306.123 61 321.523 61V96.7C319.923 96.3 318.423 96.1 317.023 96.1C315.623 95.9 314.223 95.8 312.823 95.8C298.623 95.8 287.323 100 278.923 108.4C270.523 116.6 266.323 128.9 266.323 145.3V223H228.823ZM440.609 223V190.6L438.509 183.7V127C438.509 116 435.209 107.5 428.609 101.5C422.009 95.3 412.009 92.2 398.609 92.2C389.609 92.2 380.709 93.6 371.909 96.4C363.309 99.2 356.009 103.1 350.009 108.1L335.309 80.8C343.909 74.2 354.109 69.3 365.909 66.1C377.909 62.7 390.309 61 403.109 61C426.309 61 444.209 66.6 456.809 77.8C469.609 88.8 476.009 105.9 476.009 129.1V223H440.609ZM390.209 225.1C378.209 225.1 367.709 223.1 358.709 219.1C349.709 214.9 342.709 209.2 337.709 202C332.909 194.6 330.509 186.3 330.509 177.1C330.509 168.1 332.609 160 336.809 152.8C341.209 145.6 348.309 139.9 358.109 135.7C367.909 131.5 380.909 129.4 397.109 129.4H443.609V154.3H399.809C387.009 154.3 378.409 156.4 374.009 160.6C369.609 164.6 367.409 169.6 367.409 175.6C367.409 182.4 370.109 187.8 375.509 191.8C380.909 195.8 388.409 197.8 398.009 197.8C407.209 197.8 415.409 195.7 422.609 191.5C430.009 187.3 435.309 181.1 438.509 172.9L444.809 195.4C441.209 204.8 434.709 212.1 425.309 217.3C416.109 222.5 404.409 225.1 390.209 225.1ZM615.035 61C627.835 61 639.235 63.5 649.235 68.5C659.435 73.5 667.435 81.2 673.235 91.6C679.035 101.8 681.935 115 681.935 131.2V223H644.435V136C644.435 121.8 641.035 111.2 634.235 104.2C627.635 97.2 618.335 93.7 606.335 93.7C597.535 93.7 589.735 95.5 582.935 99.1C576.135 102.7 570.835 108.1 567.035 115.3C563.435 122.3 561.635 131.2 561.635 142V223H524.135V62.8H559.835V106L553.535 92.8C559.135 82.6 567.235 74.8 577.835 69.4C588.635 63.8 601.035 61 615.035 61ZM797.599 225.1C782.199 225.1 768.299 221.7 755.899 214.9C743.699 207.9 734.099 198.3 727.099 186.1C720.099 173.9 716.599 159.5 716.599 142.9C716.599 126.3 720.099 111.9 727.099 99.7C734.099 87.5 743.699 78 755.899 71.2C768.299 64.4 782.199 61 797.599 61C810.999 61 822.999 64 833.599 70C844.199 75.8 852.599 84.7 858.799 96.7C864.999 108.7 868.099 124.1 868.099 142.9C868.099 161.5 865.099 176.9 859.099 189.1C853.099 201.1 844.799 210.1 834.199 216.1C823.599 222.1 811.399 225.1 797.599 225.1ZM802.099 193C811.099 193 819.099 191 826.099 187C833.299 183 838.999 177.2 843.199 169.6C847.599 162 849.799 153.1 849.799 142.9C849.799 132.5 847.599 123.6 843.199 116.2C838.999 108.6 833.299 102.8 826.099 98.8C819.099 94.8 811.099 92.8 802.099 92.8C793.099 92.8 784.999 94.8 777.799 98.8C770.799 102.8 765.099 108.6 760.699 116.2C756.499 123.6 754.399 132.5 754.399 142.9C754.399 153.1 756.499 162 760.699 169.6C765.099 177.2 770.799 183 777.799 187C784.999 191 793.099 193 802.099 193ZM850.699 223V185.2L852.199 142.6L849.199 100V0.399987H886.399V223H850.699ZM985.256 225.1C971.856 225.1 958.956 223.4 946.556 220C934.356 216.4 924.656 212.1 917.456 207.1L931.856 178.6C939.056 183.2 947.656 187 957.656 190C967.656 193 977.656 194.5 987.656 194.5C999.456 194.5 1007.96 192.9 1013.16 189.7C1018.56 186.5 1021.26 182.2 1021.26 176.8C1021.26 172.4 1019.46 169.1 1015.86 166.9C1012.26 164.5 1007.56 162.7 1001.76 161.5C995.956 160.3 989.456 159.2 982.256 158.2C975.256 157.2 968.156 155.9 960.956 154.3C953.956 152.5 947.556 150 941.756 146.8C935.956 143.4 931.256 138.9 927.656 133.3C924.056 127.7 922.256 120.3 922.256 111.1C922.256 100.9 925.156 92.1 930.956 84.7C936.756 77.1 944.856 71.3 955.256 67.3C965.856 63.1 978.356 61 992.756 61C1003.56 61 1014.46 62.2 1025.46 64.6C1036.46 67 1045.56 70.4 1052.76 74.8L1038.36 103.3C1030.76 98.7 1023.06 95.6 1015.26 94C1007.66 92.2 1000.06 91.3 992.456 91.3C981.056 91.3 972.556 93 966.956 96.4C961.556 99.8 958.856 104.1 958.856 109.3C958.856 114.1 960.656 117.7 964.256 120.1C967.856 122.5 972.556 124.4 978.356 125.8C984.156 127.2 990.556 128.4 997.556 129.4C1004.76 130.2 1011.86 131.5 1018.86 133.3C1025.86 135.1 1032.26 137.6 1038.06 140.8C1044.06 143.8 1048.86 148.1 1052.46 153.7C1056.06 159.3 1057.86 166.6 1057.86 175.6C1057.86 185.6 1054.86 194.3 1048.86 201.7C1043.06 209.1 1034.76 214.9 1023.96 219.1C1013.16 223.1 1000.26 225.1 985.256 225.1Z" fill="url(#paint0_linear_571_5969)" shape-rendering="crispEdges"/>
</g>
<defs>
<filter id="filter0_d_571_5969" x="0.199219" y="0.400391" width="1061.66" height="232.699" filterUnits="userSpaceOnUse" color-interpolation-filters="sRGB">
<feFlood flood-opacity="0" result="BackgroundImageFix"/>
<feColorMatrix in="SourceAlpha" type="matrix" values="0 0 0 0 0 0 0 0 0 0 0 0 0 0 0 0 0 0 127 0" result="hardAlpha"/>
<feOffset dy="4"/>
<feGaussianBlur stdDeviation="2"/>
<feComposite in2="hardAlpha" operator="out"/>
<feColorMatrix type="matrix" values="0 0 0 0 0 0 0 0 0 0 0 0 0 0 0 0 0 0 0.25 0"/>
<feBlend mode="normal" in2="BackgroundImageFix" result="effect1_dropShadow_571_5969"/>
<feBlend mode="normal" in="SourceGraphic" in2="effect1_dropShadow_571_5969" result="shape"/>
</filter>
<linearGradient id="paint0_linear_571_5969" x1="521" y1="-68" x2="521" y2="298" gradientUnits="userSpaceOnUse">
<stop stop-color="#F1EFE7"/>
<stop offset="1" stop-color="#F1EFE7" stop-opacity="0.5"/>
</linearGradient>
</defs>
</svg>
