<svg width="23" height="30" viewBox="0 0 23 30" fill="none" xmlns="http://www.w3.org/2000/svg">
<path d="M5.79492 5.45455C5.79492 2.44208 8.237 0 11.2495 0C14.2619 0 16.704 2.44208 16.704 5.45455V15C16.704 18.0124 14.2619 20.4545 11.2495 20.4545C8.237 20.4545 5.79492 18.0124 5.79492 15V5.45455Z" fill="#ED371C"/>
<path d="M3.40909 14.7875V15.0005C3.40909 17.08 4.23518 19.0743 5.70565 20.5449C7.1761 22.0153 9.17045 22.8414 11.25 22.8414C13.3295 22.8414 15.3239 22.0153 16.7944 20.5449C18.2648 19.0743 19.0909 17.08 19.0909 15.0005V14.7875C19.0909 14.0343 19.7014 13.4238 20.4545 13.4238H21.1364C21.8895 13.4238 22.5 14.0343 22.5 14.7873V15.0005C22.5 17.9841 21.3147 20.8457 19.2049 22.9554C17.5012 24.6592 15.3072 25.76 12.9545 26.1206V28.6368C12.9545 29.39 12.344 30.0005 11.5909 30.0005H10.9091C10.156 30.0005 9.54546 29.39 9.54546 28.6368V26.1206C7.19279 25.76 4.99881 24.6592 3.29505 22.9554C1.18526 20.8457 0 17.9841 0 15.0005V14.7875C0 14.0343 0.610527 13.4238 1.36364 13.4238H2.04545C2.79856 13.4238 3.40909 14.0343 3.40909 14.7875Z" fill="#ED371C"/>
</svg>
