<svg width="6" height="10" viewBox="0 0 6 10" fill="none" xmlns="http://www.w3.org/2000/svg">
<path d="M5.31593 6.563C5.31593 6.68027 5.27245 6.79754 5.17927 6.89012L2.98642 9.06888C2.80628 9.24787 2.5081 9.24787 2.32795 9.06888L0.135111 6.89012C-0.0450371 6.71113 -0.0450371 6.41487 0.135111 6.23588C0.31526 6.05689 0.613436 6.05689 0.793584 6.23588L2.65719 8.08751L4.52079 6.23588C4.70094 6.05689 4.99912 6.05689 5.17927 6.23588C5.27245 6.32229 5.31593 6.43956 5.31593 6.563Z" fill="white"/>
<path d="M5.31593 6.563C5.31593 6.68027 5.27245 6.79754 5.17927 6.89012L2.98642 9.06888C2.80628 9.24787 2.5081 9.24787 2.32795 9.06888L0.135111 6.89012C-0.0450371 6.71113 -0.0450371 6.41487 0.135111 6.23588C0.31526 6.05689 0.613436 6.05689 0.793584 6.23588L2.65719 8.08751L4.52079 6.23588C4.70094 6.05689 4.99912 6.05689 5.17927 6.23588C5.27245 6.32229 5.31593 6.43956 5.31593 6.563Z" fill="white"/>
<path d="M0.00047636 2.64012C0.00047636 2.52285 0.043961 2.40558 0.137141 2.313L2.32998 0.134244C2.51013 -0.0447479 2.80831 -0.0447479 2.98845 0.134244L5.18129 2.313C5.36144 2.49199 5.36144 2.78826 5.18129 2.96725C5.00115 3.14624 4.70297 3.14624 4.52282 2.96725L2.65922 1.11561L0.795614 2.96725C0.615466 3.14624 0.317289 3.14624 0.137141 2.96725C0.043961 2.88084 0.00047636 2.76357 0.00047636 2.64012Z" fill="white"/>
<path d="M0.00047636 2.64012C0.00047636 2.52285 0.043961 2.40558 0.137141 2.313L2.32998 0.134244C2.51013 -0.0447479 2.80831 -0.0447479 2.98845 0.134244L5.18129 2.313C5.36144 2.49199 5.36144 2.78826 5.18129 2.96725C5.00115 3.14624 4.70297 3.14624 4.52282 2.96725L2.65922 1.11561L0.795614 2.96725C0.615466 3.14624 0.317289 3.14624 0.137141 2.96725C0.043961 2.88084 0.00047636 2.76357 0.00047636 2.64012Z" fill="white"/>
</svg>
