<svg width="15" height="15" viewBox="0 0 15 15" fill="none" xmlns="http://www.w3.org/2000/svg">
<path fill-rule="evenodd" clip-rule="evenodd" d="M9.82031 5.17971C9.63703 4.9969 9.34031 4.9969 9.1575 5.17971L7.5 6.83905L5.8425 5.17971C5.65969 4.9969 5.36297 4.9969 5.17969 5.17971C4.99688 5.36252 4.99688 5.65779 5.17969 5.84061L6.83719 7.5L5.17969 9.15939C4.99688 9.34221 4.99688 9.63748 5.17969 9.82029C5.36297 10.0031 5.65969 10.0031 5.8425 9.82029L7.5 8.16095L9.1575 9.82029C9.34031 10.0031 9.63703 10.0031 9.82031 9.82029C10.0031 9.63748 10.0031 9.34221 9.82031 9.15939L8.16281 7.5L9.82031 5.84061C10.0031 5.65779 10.0031 5.36252 9.82031 5.17971ZM14.0625 13.125C14.0625 13.6406 13.6425 14.0625 13.125 14.0625H1.875C1.3575 14.0625 0.9375 13.6406 0.9375 13.125V1.875C0.9375 1.35938 1.3575 0.9375 1.875 0.9375H13.125C13.6425 0.9375 14.0625 1.35938 14.0625 1.875V13.125ZM13.125 0H1.875C0.839531 0 0 0.839062 0 1.875V13.125C0 14.1609 0.839531 15 1.875 15H13.125C14.1605 15 15 14.1609 15 13.125V1.875C15 0.839062 14.1605 0 13.125 0Z" fill="white"/>
</svg>
