<svg width="23" height="20" viewBox="0 0 23 20" fill="none" xmlns="http://www.w3.org/2000/svg">
<path fill-rule="evenodd" clip-rule="evenodd" d="M7.38348 0.000127371C7.4222 0.000202369 7.46099 0.000264756 7.49981 0.000264756C7.53869 0.000264756 7.57744 0.000202369 7.61618 0.000127371C8.07705 -0.00063511 8.53004 -0.00138544 8.93353 0.106737C10.012 0.395692 10.8542 1.23801 11.1432 2.31639C11.2513 2.71993 11.2506 3.17293 11.2498 3.63382C11.2498 3.67256 11.2497 3.71135 11.2497 3.75017H21.2495C21.9398 3.75017 22.4994 4.30979 22.4994 5.00014C22.4994 5.69047 21.9398 6.25011 21.2495 6.25011H11.2497C11.2497 6.28893 11.2498 6.32772 11.2498 6.36645C11.2506 6.82734 11.2513 7.28034 11.1432 7.68393C10.8542 8.76228 10.012 9.60464 8.93353 9.8935C8.53004 10.0016 8.07705 10.0009 7.61618 10.0001C7.57744 10.0001 7.53869 10 7.49981 10C7.46099 10 7.4222 10.0001 7.38347 10.0001C6.92258 10.0009 6.46958 10.0016 6.06604 9.8935C4.98765 9.60464 4.14533 8.76228 3.85639 7.68393C3.74826 7.28033 3.74901 6.82734 3.74978 6.36644C3.74984 6.32772 3.74991 6.28892 3.74991 6.25011H1.24997C0.559636 6.25011 0 5.69047 0 5.00014C0 4.30979 0.559636 3.75017 1.24997 3.75017H3.74991C3.74991 3.71135 3.74984 3.67256 3.74978 3.63382C3.74901 3.17293 3.74826 2.71993 3.85639 2.31639C4.14533 1.23801 4.98765 0.395692 6.06604 0.106737C6.46958 -0.00138544 6.92258 -0.00063511 7.38348 0.000127371ZM6.87309 2.50689C6.73977 2.51296 6.7084 2.52275 6.71307 2.52149C6.49739 2.57929 6.32893 2.74775 6.27114 2.96343C6.27009 2.96782 6.26188 3.00621 6.25653 3.12344C6.25014 3.26347 6.24984 3.44823 6.24984 3.75017V6.25011C6.24984 6.55204 6.25014 6.7368 6.25653 6.87683C6.26261 7.01015 6.27239 7.04151 6.27114 7.03685C6.32893 7.25252 6.49739 7.42099 6.71307 7.47878C6.7084 7.47753 6.73977 7.4873 6.87309 7.49339C7.01311 7.49978 7.19787 7.50006 7.49981 7.50006C7.80181 7.50006 7.98655 7.49978 8.12655 7.49339C8.25979 7.4873 8.29117 7.47753 8.28654 7.47878C8.50229 7.42099 8.67066 7.25252 8.72853 7.03685C8.72728 7.04151 8.73703 7.01015 8.74303 6.87683C8.74953 6.7368 8.74978 6.55204 8.74978 6.25011V3.75017C8.74978 3.44823 8.74953 3.26347 8.74303 3.12344C8.73703 2.99013 8.72728 2.95875 8.72853 2.96343M6.87309 2.50689C7.01311 2.5005 7.19787 2.5002 7.49981 2.5002L6.87309 2.50689ZM7.49981 2.5002C7.80181 2.5002 7.98655 2.5005 8.12655 2.50689L7.49981 2.5002ZM8.12655 2.50689C8.24379 2.51223 8.28217 2.52044 8.28654 2.52149L8.12655 2.50689ZM14.8833 9.99988C14.922 10 14.9608 10 14.9996 10C15.0385 10 15.0772 10 15.116 9.99988C15.5769 9.99913 16.0298 9.99838 16.4333 10.1065C17.5118 10.3955 18.354 11.2377 18.643 12.3162C18.7512 12.7197 18.7504 13.1727 18.7497 13.6335C18.7497 13.6723 18.7495 13.711 18.7495 13.7499H21.2495C21.9398 13.7499 22.4994 14.3095 22.4994 14.9999C22.4994 15.6902 21.9398 16.2498 21.2495 16.2498H18.7495C18.7495 16.2887 18.7497 16.3275 18.7497 16.3662C18.7504 16.8271 18.7512 17.2801 18.643 17.6837C18.354 18.762 17.5118 19.6044 16.4333 19.8933C16.0298 20.0014 15.5769 20.0006 15.116 19.9999C15.0772 19.9999 15.0385 19.9998 14.9996 19.9998C14.9608 19.9998 14.922 19.9999 14.8833 19.9999C14.4224 20.0006 13.9694 20.0014 13.5659 19.8933C12.4874 19.6044 11.6452 18.762 11.3562 17.6837C11.2481 17.2801 11.2488 16.8271 11.2496 16.3662C11.2496 16.3275 11.2497 16.2887 11.2497 16.2498H1.24997C0.559636 16.2498 0 15.6902 0 14.9999C0 14.3095 0.559636 13.7499 1.24997 13.7499H11.2497C11.2497 13.7112 11.2496 13.6723 11.2496 13.6335C11.2488 13.1727 11.2481 12.7197 11.3562 12.3162C11.6452 11.2377 12.4874 10.3955 13.5659 10.1065C13.9694 9.99838 14.4224 9.99913 14.8833 9.99988ZM14.3729 12.5067C14.2396 12.5127 14.2083 12.5224 14.2129 12.5212C13.9971 12.5791 13.8288 12.7476 13.7709 12.9632C13.7722 12.9586 13.7624 12.9899 13.7564 13.1232C13.7499 13.2632 13.7497 13.448 13.7497 13.7499V16.2498C13.7497 16.5518 13.7499 16.7366 13.7564 16.8766C13.7624 17.01 13.7722 17.0413 13.7709 17.0366C13.8288 17.2523 13.9971 17.4207 14.2129 17.4786C14.2083 17.4773 14.2396 17.4871 14.3729 17.4932C14.5129 17.4996 14.6976 17.4998 14.9996 17.4998C15.3016 17.4998 15.4864 17.4996 15.6264 17.4932C15.7596 17.4871 15.791 17.4773 15.7864 17.4786C16.0021 17.4207 16.1705 17.2523 16.2283 17.0366C16.2271 17.0413 16.2368 17.01 16.2428 16.8766C16.2493 16.7366 16.2496 16.5518 16.2496 16.2498V13.7499C16.2496 13.448 16.2493 13.2632 16.2428 13.1232C16.2368 12.9899 16.2271 12.9586 16.2283 12.9632C16.1705 12.7476 16.0021 12.5791 15.7864 12.5212C15.791 12.5224 15.7596 12.5127 15.6264 12.5067C15.4864 12.5002 15.3016 12.4999 14.9996 12.4999C14.6976 12.4999 14.5129 12.5002 14.3729 12.5067Z" fill="white"/>
</svg>
