<svg width="91" height="81" viewBox="0 0 91 81" fill="none" xmlns="http://www.w3.org/2000/svg">
<path d="M80.0319 53.2168L78.9996 52.9081V16.4681C78.9996 16.1187 78.9308 15.7727 78.7971 15.4499C78.6634 15.1271 78.4674 14.8338 78.2203 14.5867C77.9733 14.3397 77.68 14.1437 77.3571 14.01C77.0343 13.8763 76.6884 13.8074 76.339 13.8074H62.5675V2.99462C62.5675 2.64522 62.4987 2.29924 62.365 1.97644C62.2313 1.65364 62.0353 1.36033 61.7882 1.11327C61.5412 0.866204 61.2479 0.670223 60.9251 0.536513C60.6023 0.402804 60.2563 0.333984 59.9069 0.333984L41.8678 0.333984C41.5184 0.333984 41.1724 0.402804 40.8496 0.536513C40.5268 0.670223 40.2335 0.866204 39.9864 1.11327C39.7393 1.36033 39.5434 1.65364 39.4097 1.97644C39.2759 2.29924 39.2071 2.64522 39.2071 2.99462V8.81609H29.5011C29.1517 8.81609 28.8058 8.88491 28.483 9.01862C28.1601 9.15233 27.8668 9.34831 27.6198 9.59537C27.3727 9.84244 27.1767 10.1357 27.043 10.4585C26.9093 10.7813 26.8405 11.1273 26.8405 11.4767V19.4161H14.4419C14.0925 19.4161 13.7466 19.4849 13.4238 19.6186C13.1009 19.7523 12.8076 19.9483 12.5606 20.1953C12.3135 20.4424 12.1175 20.7357 11.9838 21.0585C11.8501 21.3813 11.7813 21.7273 11.7813 22.0767V50.4178C11.7813 50.9286 11.9303 51.3969 12.1751 51.8013L8.97166 53.4616C8.45346 53.7314 8.0189 54.1377 7.71501 54.6367C7.41113 55.1357 7.24948 55.7083 7.24757 56.2925V60.4218H10.6425V63.0718L13.6437 64.317V58.2294L26.617 51.4927L41.1334 57.0694V69.6169C42.0274 69.6489 42.9214 69.6808 43.826 69.6914L45.4224 69.7127L46.9655 69.6914C47.1465 69.6914 47.338 69.6808 47.519 69.6702V54.877C47.519 53.5573 46.6995 52.3654 45.4756 51.8971L45.0605 51.7375V51.1947H62.4079V68.5633C64.547 68.2653 66.601 67.9141 68.5167 67.4991L68.7934 67.4352V56.5053L75.9133 58.6551V65.4344C77.1052 64.9874 78.1482 64.5298 78.9996 64.0615L79.9361 63.5507L80.149 63.3698V60.4431H82.3094V56.2818C82.2988 54.8664 81.3729 53.6212 80.0319 53.2168ZM26.8405 28.9305H24.2224C23.5168 28.9305 22.84 29.2108 22.3411 29.7098C21.8421 30.2087 21.5618 30.8855 21.5618 31.5911C21.5618 32.2968 21.8421 32.9735 22.3411 33.4725C22.84 33.9715 23.5168 34.2518 24.2224 34.2518H26.8405V39.3283H24.2224C23.5168 39.3283 22.84 39.6086 22.3411 40.1075C21.8421 40.6065 21.5618 41.2833 21.5618 41.9889C21.5618 42.6945 21.8421 43.3713 22.3411 43.8703C22.84 44.3692 23.5168 44.6495 24.2224 44.6495H26.8405V44.8517C26.1913 44.7666 25.5315 44.873 24.9461 45.1817L17.1026 49.2578V24.748H26.8405V28.9305ZM42.1232 44.8092C42.6447 44.3196 42.9746 43.6385 42.9746 42.8616C42.9746 42.5122 42.9058 42.1662 42.7721 41.8434C42.6384 41.5206 42.4424 41.2273 42.1953 40.9802C41.9482 40.7332 41.6549 40.5372 41.3321 40.4035C41.0093 40.2698 40.6634 40.201 40.314 40.201H40.1756C39.8262 40.201 39.4802 40.2698 39.1574 40.4035C38.8346 40.5372 38.5413 40.7332 38.2943 40.9802C38.0472 41.2273 37.8512 41.5206 37.7175 41.8434C37.5838 42.1662 37.515 42.5122 37.515 42.8616C37.515 44.2345 38.5686 45.3626 39.9095 45.4903C39.5268 45.7855 39.2166 46.1643 39.0026 46.5978C38.7886 47.0313 38.6766 47.5079 38.675 47.9913V49.2897L32.1618 46.7887V14.1374H46.5292V44.5857C46.5292 44.6602 46.5505 44.7347 46.5505 44.8092H42.1232ZM57.2462 44.8092H51.8292C51.8398 44.7347 51.8505 44.6602 51.8505 44.5857V11.4767C51.8505 11.1273 51.7817 10.7813 51.6479 10.4585C51.5142 10.1357 51.3183 9.84244 51.0712 9.59537C50.8241 9.34831 50.5308 9.15233 50.208 9.01862C49.8852 8.88491 49.5392 8.81609 49.1898 8.81609H44.5284V5.65526H57.2462V44.8092ZM73.6783 51.3011L68.7934 49.8325V48.0019C68.7934 46.2353 67.3673 44.8092 65.6006 44.8092H62.5675V41.9144H64.9834C65.689 41.9144 66.3658 41.6341 66.8647 41.1351C67.3637 40.6362 67.644 39.9594 67.644 39.2538C67.644 38.5481 67.3637 37.8714 66.8647 37.3724C66.3658 36.8734 65.689 36.5931 64.9834 36.5931H62.5675V31.6976H64.9834C65.689 31.6976 66.3658 31.4172 66.8647 30.9183C67.3637 30.4193 67.644 29.7426 67.644 29.0369C67.644 28.3313 67.3637 27.6545 66.8647 27.1556C66.3658 26.6566 65.689 26.3763 64.9834 26.3763H62.5675V19.1287H73.6783V51.3011ZM29.6714 59.7087H25.1164C23.3497 59.7087 21.9236 61.1348 21.9236 62.9015V67.4352L22.2855 67.5097C25.0738 68.1057 28.1282 68.5846 31.3636 68.9465L32.8429 69.1167H32.8748V62.9015C32.8642 61.1455 31.4381 59.7087 29.6714 59.7087ZM55.5115 55.026H53.6916C52.986 55.026 52.3092 55.3063 51.8103 55.8053C51.3113 56.3043 51.031 56.981 51.031 57.6866V61.0497C51.031 61.7553 51.3113 62.4321 51.8103 62.931C52.3092 63.43 52.986 63.7103 53.6916 63.7103H55.5115C55.8609 63.7103 56.2069 63.6415 56.5297 63.5078C56.8525 63.3741 57.1458 63.1781 57.3929 62.931C57.6399 62.684 57.8359 62.3907 57.9696 62.0679C58.1033 61.7451 58.1721 61.3991 58.1721 61.0497V57.6866C58.1721 56.2073 56.9802 55.026 55.5115 55.026ZM40.314 29.8138H40.1756C39.47 29.8138 38.7932 30.0941 38.2943 30.5931C37.7953 31.0921 37.515 31.7688 37.515 32.4745C37.515 33.1801 37.7953 33.8568 38.2943 34.3558C38.7932 34.8548 39.47 35.1351 40.1756 35.1351H40.314C41.0196 35.1351 41.6963 34.8548 42.1953 34.3558C42.6943 33.8568 42.9746 33.1801 42.9746 32.4745C42.9746 31.7688 42.6943 31.0921 42.1953 30.5931C41.6963 30.0941 41.0196 29.8138 40.314 29.8138ZM40.314 19.4267H40.1756C39.47 19.4267 38.7932 19.707 38.2943 20.206C37.7953 20.705 37.515 21.3817 37.515 22.0873C37.515 22.793 37.7953 23.4697 38.2943 23.9687C38.7932 24.4677 39.47 24.748 40.1756 24.748H40.314C41.0196 24.748 41.6963 24.4677 42.1953 23.9687C42.6943 23.4697 42.9746 22.793 42.9746 22.0873C42.9746 21.3817 42.6943 20.705 42.1953 20.206C41.6963 19.707 41.0196 19.4267 40.314 19.4267ZM84.406 64.6894C84.406 64.9874 84.0974 65.5728 83.2353 66.3178L87.3966 71.1601C90.1956 68.7549 90.7809 66.3177 90.7809 64.6894H84.406ZM70.0705 74.7679L69.4 71.6816C66.4733 72.3095 63.2806 72.8097 59.9069 73.1822L60.6093 79.5251C64.1958 79.1314 67.5908 78.5886 70.7303 77.9181L70.7197 77.8862L71.0816 77.8223L70.0705 74.7679ZM18.3052 70.9473C18.2945 70.9473 18.2839 70.9473 18.2839 70.9366C14.8251 70.032 11.8664 68.9465 9.75921 67.7864L6.69416 73.3844C9.31223 74.8211 12.6753 76.077 16.7088 77.1199L17.4644 74.2039L17.4751 74.172L16.7301 77.1306L17.5176 74.0336L18.5287 71.0005L18.3052 70.9473ZM82.6394 70.6918L82.5755 70.5854L81.043 67.7864C78.9251 68.9465 75.9665 70.0426 72.4864 70.9473L74.0934 77.1306C78.0737 76.0983 81.4048 74.8531 84.0016 73.4483H84.0122C84.0442 73.427 84.0761 73.4163 84.108 73.395L82.6394 70.6918ZM7.73713 66.488L7.54556 66.3178C6.69416 65.5834 6.38553 64.9981 6.38553 64.6894H0C0 66.3071 0.58534 68.7442 3.38433 71.1601L3.71425 71.4155L5.48091 68.7762L7.73713 66.488ZM56.9802 73.4802L56.7035 73.4908C53.5639 73.7569 50.2967 73.9059 47.0188 73.9485L47.0933 80.334C50.5308 80.2914 53.9471 80.1318 57.2462 79.8551L56.9908 76.8007V73.4802H56.9802ZM21.3915 71.6816L20.0612 77.9288C23.1901 78.5993 26.5957 79.1314 30.1823 79.5358V79.4932L30.5441 79.5464V76.3217L30.8847 73.1822C27.511 72.8097 24.3076 72.2989 21.3915 71.6816ZM34.0987 73.4908L33.5666 79.8551C36.8551 80.1318 40.2714 80.2914 43.7196 80.334L43.7515 77.1412V76.7049L43.7834 73.9485C40.4842 73.9059 37.2276 73.7569 34.0987 73.4908Z" fill="#ED371C"/>
</svg>
